<svg xmlns="http://www.w3.org/2000/svg" width="39" height="39" viewBox="0 0 39 39">
  <g id="Group_54022" data-name="Group 54022" transform="translate(-28.61 -21)">
    <rect id="Rectangle_16751" data-name="Rectangle 16751" width="39" height="39" rx="8" transform="translate(28.61 21)" fill="#fff"/>
    <g id="Group_54014" data-name="Group 54014" transform="translate(-639.39 -269)">
      <path id="Path_23734" data-name="Path 23734" d="M24.868,29.768a1.664,1.664,0,0,0-1.389-.667H21.262v-2.41a1.687,1.687,0,0,0-1.685-1.685h-7.77a1.575,1.575,0,0,1-1.041-.529l-.582-.8a2.9,2.9,0,0,0-2.144-1.089H5.348a2.188,2.188,0,0,0-1.98,1.4l-.185.524a.848.848,0,0,1-.692.489H1.685A1.687,1.687,0,0,0,0,26.691V41.906a.68.68,0,0,0,.04.229,1.538,1.538,0,0,0,.278.825,1.663,1.663,0,0,0,1.389.667H18.872a2.754,2.754,0,0,0,2.462-1.747l3.7-10.581A1.664,1.664,0,0,0,24.868,29.768Zm-23.183-3.4h.807a2.188,2.188,0,0,0,1.98-1.4l.185-.524a.848.848,0,0,1,.692-.489H8.041a1.576,1.576,0,0,1,1.042.529l.582.8a2.9,2.9,0,0,0,2.144,1.089h7.77a.323.323,0,0,1,.319.319V29.1H6.314a2.754,2.754,0,0,0-2.462,1.747l-2.487,7.1V26.691A.323.323,0,0,1,1.685,26.373Zm22.064,4.476-3.7,10.581a1.391,1.391,0,0,1-1.173.832H1.708a.344.344,0,0,1-.275-.091.344.344,0,0,1,.005-.29L5.142,31.3a1.391,1.391,0,0,1,1.173-.832H23.479a.244.244,0,0,1,.27.381Z" transform="translate(675.926 276.642)" fill="#433e3c"/>
      <g id="Group_54013" data-name="Group 54013" transform="translate(680.848 303.689)">
        <path id="Path_23735" data-name="Path 23735" d="M3.357,15.835a.356.356,0,0,0,.284-.14l.156-.2a3.912,3.912,0,0,0,7.115,1.512.358.358,0,0,0-.6-.4,3.195,3.195,0,0,1-5.821-1.3l.306.236a.358.358,0,0,0,.437-.567l-.848-.653c-.178-.137-.431-.214-.592,0l-.723.939a.357.357,0,0,0,.283.576Z" transform="translate(0 -5.862)" fill="#433e3c"/>
        <path id="Path_23736" data-name="Path 23736" d="M6.882,7.306a.359.359,0,0,0,.5-.1,3.195,3.195,0,0,1,5.821,1.3l-.306-.236a.358.358,0,0,0-.437.567l.848.653c.181.139.428.217.592,0l.723-.939a.358.358,0,1,0-.567-.436l-.156.2A3.913,3.913,0,0,0,6.781,6.81.358.358,0,0,0,6.882,7.306Z" transform="translate(-2.39)" fill="#433e3c"/>
      </g>
    </g>
  </g>
</svg>
