<svg xmlns="http://www.w3.org/2000/svg" width="39" height="39" viewBox="0 0 39 39">
  <g id="Group_54024" data-name="Group 54024" transform="translate(-28 -19)">
    <rect id="Rectangle_6258" data-name="Rectangle 6258" width="39" height="39" rx="8" transform="translate(28 19)" fill="#fff"/>
    <g id="Group_54010" data-name="Group 54010" transform="translate(-5885 -370)">
      <g id="Group_53983" data-name="Group 53983" transform="translate(5921.915 398.915)">
        <path id="Path_23714" data-name="Path 23714" d="M17.542,22.932a.693.693,0,0,1-.272-.055C17.057,22.785,12,20.583,12,16.054V12.343a.693.693,0,0,1,.47-.656l4.85-1.65a.693.693,0,0,1,.445,0l4.85,1.65a.693.693,0,0,1,.47.656v3.712c0,4.529-5.057,6.731-5.271,6.824a.709.709,0,0,1-.272.055ZM13.386,12.839v3.215c0,3.079,3.192,4.93,4.157,5.418.964-.488,4.157-2.339,4.157-5.418V12.839l-4.157-1.414Z" transform="translate(-0.915 -0.763)" fill="#433e3c"/>
        <path id="Path_23715" data-name="Path 23715" d="M17.54,19.081a.688.688,0,0,1-.49-.2L15.2,17.03a.693.693,0,1,1,.98-.98l1.283,1.283,2.291-3.056a.693.693,0,0,1,1.108.832L18.094,18.8a.692.692,0,0,1-.505.275H17.54Z" transform="translate(-1.144 -1.068)" fill="#433e3c"/>
        <path id="Path_23716" data-name="Path 23716" d="M9.782,19.4H2.54A2.542,2.542,0,0,1,0,16.858V2.54A2.542,2.542,0,0,1,2.54,0H13.163A2.542,2.542,0,0,1,15.7,2.54V7.556a.693.693,0,1,1-1.386,0V2.54a1.156,1.156,0,0,0-1.155-1.155H2.54A1.156,1.156,0,0,0,1.386,2.54V16.858A1.156,1.156,0,0,0,2.54,18.013H9.782a.693.693,0,1,1,0,1.386Z" fill="#433e3c"/>
        <path id="Path_23717" data-name="Path 23717" d="M12.468,9.386H3.693A.693.693,0,0,1,3.693,8h8.775a.693.693,0,1,1,0,1.386Z" transform="translate(-0.229 -0.61)" fill="#433e3c"/>
        <path id="Path_23718" data-name="Path 23718" d="M8.773,13.386H3.693a.693.693,0,0,1,0-1.386H8.773a.693.693,0,0,1,0,1.386Z" transform="translate(-0.229 -0.915)" fill="#433e3c"/>
        <path id="Path_23719" data-name="Path 23719" d="M7.85,5.386H3.693A.693.693,0,0,1,3.693,4H7.85a.693.693,0,0,1,0,1.386Z" transform="translate(-0.229 -0.305)" fill="#433e3c"/>
      </g>
      <rect id="Rectangle_16898" data-name="Rectangle 16898" width="33" height="33" transform="translate(5916 393)" fill="none"/>
    </g>
  </g>
</svg>
