<svg id="Group_53829" data-name="Group 53829" xmlns="http://www.w3.org/2000/svg" width="32.089" height="33.668" viewBox="0 0 32.089 33.668">
  <path id="Path_23509" data-name="Path 23509" d="M99,114.745V102.721a2.853,2.853,0,1,1,5.705,0v2.952l7.729-7.729a2.473,2.473,0,1,1,3.5,3.5l1.765-1.765a2.473,2.473,0,0,1,3.5,3.5l-1.022,1.022a2.473,2.473,0,1,1,3.5,3.5l-2.522,2.522a2.473,2.473,0,0,1,3.5,3.5l-7.786,7.786a10.235,10.235,0,0,1-14.474,0l-1-1A8.1,8.1,0,0,1,99,114.746Z" transform="translate(-99.003 -90.827)" fill="#efba18"/>
  <g id="Group_53826" data-name="Group 53826" transform="translate(11.646 10.121)">
    <path id="Path_23510" data-name="Path 23510" d="M99.947,284.911l.363-.363.9-.574a2.473,2.473,0,0,1,2.6,4.071L99,292.853C100.564,290.143,100.879,286.783,99.947,284.911Z" transform="translate(-89.809 -275.281)" fill="#eed076"/>
    <path id="Path_23511" data-name="Path 23511" d="M115.39,196.609l-1.354,1.354c.243-.752.836-3.771-.209-5.568a2.472,2.472,0,0,1,1.563,4.214Z" transform="translate(-102.367 -189.865)" fill="#eed076"/>
    <path id="Path_23512" data-name="Path 23512" d="M235.5,159.694a.492.492,0,0,0,.349-.144l4.792-4.792a.493.493,0,0,0-.7-.7l-4.792,4.792a.493.493,0,0,0,.349.842Z" transform="translate(-235.005 -153.915)" fill="#eed076"/>
    <path id="Path_23513" data-name="Path 23513" d="M171.013,202.372a.492.492,0,0,0,.349-.144l5.592-5.592a.493.493,0,1,0-.7-.7l-5.592,5.592a.493.493,0,0,0,.349.842Z" transform="translate(-167.079 -193.039)" fill="#eed076"/>
    <path id="Path_23514" data-name="Path 23514" d="M156.188,292.007a.492.492,0,0,0,.349-.144l3.689-3.689a.493.493,0,0,0-.7-.7l-3.689,3.689a.493.493,0,0,0,.349.842Z" transform="translate(-149.376 -278.558)" fill="#eed076"/>
  </g>
  <g id="Group_53827" data-name="Group 53827" transform="translate(4.561)">
    <path id="Path_23515" data-name="Path 23515" d="M312.766,57.215a3.742,3.742,0,0,1,2.876-2.779.493.493,0,1,0-.2-.966,4.732,4.732,0,0,0-3.637,3.514.493.493,0,1,0,.959.231Z" transform="translate(-308.222 -49.945)" fill="#4e5660"/>
    <path id="Path_23516" data-name="Path 23516" d="M316.985,6.938a8.027,8.027,0,0,1,6.17-5.961.493.493,0,1,0-.2-.966,9.017,9.017,0,0,0-6.931,6.7.493.493,0,1,0,.959.231Z" transform="translate(-316.012 -0.001)" fill="#4e5660"/>
  </g>
  <g id="Group_53828" data-name="Group 53828" transform="translate(24.441 24.49)">
    <path id="Path_23517" data-name="Path 23517" d="M66.078,376.659a4.732,4.732,0,0,0,3.514-3.637.493.493,0,0,0-.966-.2,3.742,3.742,0,0,1-2.779,2.876.493.493,0,0,0,.231.959Z" transform="translate(-65.469 -372.429)" fill="#4e5660"/>
    <path id="Path_23518" data-name="Path 23518" d="M12.619,384.171a9.017,9.017,0,0,0,6.7-6.931.493.493,0,0,0-.966-.2,8.027,8.027,0,0,1-5.961,6.17.493.493,0,0,0,.231.959Z" transform="translate(-11.677 -376.37)" fill="#4e5660"/>
  </g>
  <path id="Path_23519" data-name="Path 23519" d="M359.615,271.946a.493.493,0,0,0,.453-.3,8.06,8.06,0,0,0-.515-7.4.493.493,0,1,0-.842.515,7.073,7.073,0,0,1,.451,6.5.494.494,0,0,0,.452.689Z" transform="translate(-351.437 -246.649)" fill="#eed076"/>
</svg>
