<svg xmlns="http://www.w3.org/2000/svg" width="39" height="39" viewBox="0 0 39 39">
  <g id="Group_54025" data-name="Group 54025" transform="translate(-28.61 -19)">
    <rect id="Rectangle_6260" data-name="Rectangle 6260" width="39" height="39" rx="8" transform="translate(28.61 19)" fill="#fff"/>
    <g id="Group_54011" data-name="Group 54011" transform="translate(34.613 27.146)">
      <path id="Path_23722" data-name="Path 23722" d="M2.593,50.9H14.586a1.593,1.593,0,1,1,0,3.187H2.593A1.593,1.593,0,0,1,1,52.493,1.567,1.567,0,0,1,2.593,50.9Z" transform="translate(9.823 -31.907)" fill="none" stroke="#433e3c" stroke-linecap="round" stroke-linejoin="round" stroke-width="1.1"/>
      <path id="Path_23723" data-name="Path 23723" d="M17.051,45.681a1.42,1.42,0,0,0-1.342-.881H7.742a1.44,1.44,0,0,0-1.342.881" transform="translate(6.687 -28.365)" fill="none" stroke="#433e3c" stroke-linecap="round" stroke-linejoin="round" stroke-width="1.1"/>
      <path id="Path_23724" data-name="Path 23724" d="M11.685,15.2l4.487-2.013a1,1,0,0,1,1.3.5l1.635,3.69a1,1,0,0,1-.5,1.3l-4.487,2.013a1,1,0,0,1-1.3-.5L11.182,16.5a1.022,1.022,0,0,1,.5-1.3Z" transform="translate(2.576 -9.963)" fill="none" stroke="#433e3c" stroke-linecap="round" stroke-linejoin="round" stroke-width="1.1"/>
      <path id="Path_23725" data-name="Path 23725" d="M18.3,8.582a1.224,1.224,0,0,0,.084.377.985.985,0,0,0,1.3.5l.587,1.384,4.487-2.013-.629-1.384a.948.948,0,0,0,.587-.881,1.224,1.224,0,0,0-.084-.377.985.985,0,0,0-1.3-.5L18.845,7.7A.978.978,0,0,0,18.3,8.582Z" transform="translate(-6.01 -5.608)" fill="none" stroke="#433e3c" stroke-linecap="round" stroke-linejoin="round" stroke-width="1.1"/>
      <path id="Path_23726" data-name="Path 23726" d="M7.742,30.735a1.224,1.224,0,0,0,.084.377.985.985,0,0,0,1.3.5l4.487-1.971a.948.948,0,0,0,.587-.881,1.224,1.224,0,0,0-.084-.377.985.985,0,0,0-1.3-.5L12.187,26.5,7.7,28.513,8.329,29.9A.855.855,0,0,0,7.742,30.735Z" transform="translate(8.993 -17.739)" fill="none" stroke="#433e3c" stroke-linecap="round" stroke-linejoin="round" stroke-width="1.1"/>
      <path id="Path_23727" data-name="Path 23727" d="M43.284,24.6,31.962,28.835a1.928,1.928,0,1,0,1.552,3.522l10.735-5.535" transform="translate(-30.7 -16.636)" fill="none" stroke="#433e3c" stroke-linecap="round" stroke-linejoin="round" stroke-width="1.1"/>
      <path id="Path_23728" data-name="Path 23728" d="M22.8,10.1l-3.1,1.342" transform="translate(-4.642 -8.216)" fill="none" stroke="#433e3c" stroke-linecap="round" stroke-linejoin="round" stroke-width="1.1"/>
      <path id="Path_23729" data-name="Path 23729" d="M14.4,32.584,17.461,31.2" transform="translate(2.922 -20.468)" fill="none" stroke="#433e3c" stroke-linecap="round" stroke-linejoin="round" stroke-width="1.1"/>
    </g>
  </g>
</svg>
