<svg id="Group_51357" data-name="Group 51357" xmlns="http://www.w3.org/2000/svg" width="14.691" height="8.815" viewBox="0 0 14.691 8.815">
  <path id="Path_14403" data-name="Path 14403" d="M16.476,6.215a.735.735,0,0,1,0,1.039L10.6,13.13a.735.735,0,0,1-1.039,0L7.4,10.971a.367.367,0,0,0-.519,0L3.254,14.6a.735.735,0,0,1-1.039-1.039L6.622,9.153a.735.735,0,0,1,1.039,0L9.82,11.312a.367.367,0,0,0,.519,0l5.1-5.1A.735.735,0,0,1,16.476,6.215Z" transform="translate(-2 -6)" fill="#0f8741" fill-rule="evenodd"/>
  <path id="Path_14404" data-name="Path 14404" d="M16,6.735A.735.735,0,0,1,16.735,6h2.938a.735.735,0,0,1,.735.735V9.673a.735.735,0,0,1-1.469,0V7.836a.367.367,0,0,0-.367-.367H16.735A.735.735,0,0,1,16,6.735Z" transform="translate(-5.716 -6)" fill="#0f8741" fill-rule="evenodd"/>
</svg>
