<svg xmlns="http://www.w3.org/2000/svg" width="39" height="39" viewBox="0 0 39 39">
  <g id="Group_54026" data-name="Group 54026" transform="translate(-28.22 -20)">
    <rect id="Rectangle_6262" data-name="Rectangle 6262" width="39" height="39" rx="8" transform="translate(28.22 20)" fill="#fff"/>
    <g id="Group_54012" data-name="Group 54012" transform="translate(33.979 28.722)">
      <path id="Path_23730" data-name="Path 23730" d="M23.275,4.6,18.87.194A.661.661,0,0,0,18.4,0H8.269A1.985,1.985,0,0,0,6.287,1.983V10.7a5.948,5.948,0,0,0,.661,11.858H21.486a1.985,1.985,0,0,0,1.983-1.983V5.067a.661.661,0,0,0-.194-.467ZM19.063,2.256l2.149,2.149H19.063ZM2.322,16.609a4.626,4.626,0,1,1,4.626,4.626A4.631,4.631,0,0,1,2.322,16.609Zm19.164,4.626h-10.8a5.945,5.945,0,0,0,2.177-3.965h6.866a.661.661,0,1,0,0-1.322H12.858A5.911,5.911,0,0,0,11.89,13.3h7.833a.661.661,0,1,0,0-1.322H10.681A5.92,5.92,0,0,0,7.608,10.7V1.983a.662.662,0,0,1,.661-.661h9.472V5.066a.661.661,0,0,0,.661.661h3.745V20.574A.662.662,0,0,1,21.486,21.235Z" fill="#433e3c"/>
      <path id="Path_23731" data-name="Path 23731" d="M201.353,182h-9.692a.661.661,0,1,0,0,1.322h9.692a.661.661,0,1,0,0-1.322Z" transform="translate(-181.629 -173.982)" fill="#433e3c"/>
      <path id="Path_23732" data-name="Path 23732" d="M123.423,305.965a.661.661,0,1,0,0-1.322h-1.1v-1.983a.661.661,0,0,0-1.322,0V305.3a.661.661,0,0,0,.661.661Z" transform="translate(-114.713 -288.695)" fill="#433e3c"/>
    </g>
  </g>
</svg>
