<svg xmlns="http://www.w3.org/2000/svg" width="14.691" height="8.815" viewBox="0 0 14.691 8.815">
  <g id="Group_51357" data-name="Group 51357" transform="translate(0)">
    <path id="Path_14403" data-name="Path 14403" d="M16.476,14.6a.735.735,0,0,0,0-1.039L10.6,7.684a.735.735,0,0,0-1.039,0L7.4,9.843a.367.367,0,0,1-.519,0L3.254,6.215A.735.735,0,1,0,2.215,7.254l4.407,4.407a.735.735,0,0,0,1.039,0L9.82,9.5a.367.367,0,0,1,.519,0l5.1,5.1A.735.735,0,0,0,16.476,14.6Z" transform="translate(-2 -6)" fill="#d5090e" fill-rule="evenodd"/>
    <path id="Path_14404" data-name="Path 14404" d="M16,9.673a.735.735,0,0,0,.735.735h2.938a.735.735,0,0,0,.735-.735V6.735a.735.735,0,0,0-1.469,0V8.571a.367.367,0,0,1-.367.367H16.735A.735.735,0,0,0,16,9.673Z" transform="translate(-5.716 -1.593)" fill="#d5090e" fill-rule="evenodd"/>
  </g>
</svg>
