<svg xmlns="http://www.w3.org/2000/svg" width="39" height="39" viewBox="0 0 39 39">
  <g id="Group_54021" data-name="Group 54021" transform="translate(-28 -21)">
    <rect id="Rectangle_6257" data-name="Rectangle 6257" width="39" height="39" rx="8" transform="translate(28 21)" fill="#fff"/>
    <path id="Path_23733" data-name="Path 23733" d="M24.868,29.768a1.664,1.664,0,0,0-1.389-.667H21.262v-2.41a1.687,1.687,0,0,0-1.685-1.685h-7.77a1.575,1.575,0,0,1-1.041-.529l-.582-.8a2.9,2.9,0,0,0-2.144-1.089H5.348a2.188,2.188,0,0,0-1.98,1.4l-.185.524a.848.848,0,0,1-.692.489H1.685A1.687,1.687,0,0,0,0,26.691V41.906a.68.68,0,0,0,.04.229,1.538,1.538,0,0,0,.278.825,1.663,1.663,0,0,0,1.389.667H18.872a2.754,2.754,0,0,0,2.462-1.747l3.7-10.581A1.664,1.664,0,0,0,24.868,29.768Zm-23.183-3.4h.807a2.188,2.188,0,0,0,1.98-1.4l.185-.524a.848.848,0,0,1,.692-.489H8.041a1.576,1.576,0,0,1,1.042.529l.582.8a2.9,2.9,0,0,0,2.144,1.089h7.77a.323.323,0,0,1,.319.319V29.1H6.314a2.754,2.754,0,0,0-2.462,1.747l-2.487,7.1V26.691A.323.323,0,0,1,1.685,26.373Zm22.064,4.476-3.7,10.581a1.391,1.391,0,0,1-1.173.832H1.708a.344.344,0,0,1-.275-.091.344.344,0,0,1,.005-.29L5.142,31.3a1.391,1.391,0,0,1,1.173-.832H23.479a.244.244,0,0,1,.27.381Z" transform="translate(35.926 7.642)" fill="#433e3c"/>
  </g>
</svg>
